<svg width="24" height="24" viewBox="0 0 24 24" fill="none" xmlns="http://www.w3.org/2000/svg">
            <path
              d="M17.2297 10.3758C18.1432 10.5164 18.7756 10.938 19.127 11.5001C19.4783 12.0623 19.6891 13.046 19.6891 14.3108C19.6891 16.8405 18.9162 18.9485 17.3703 20.5647C15.8244 22.1808 13.8569 23.024 11.4678 23.024C10.5543 23.024 9.64081 22.8835 8.72733 22.5322C7.81385 22.1808 7.11117 21.689 6.47876 21.1268C5.77608 20.4944 5.21394 19.7215 4.8626 19.0188C4.58153 18.2458 4.37073 17.4729 4.37073 16.6999C4.37073 15.8567 4.58153 15.1541 4.93287 14.6622C5.28421 14.1703 5.91662 13.8892 6.68956 13.6784C6.54903 13.3271 6.40849 13.046 6.33823 12.7649C6.26796 12.5541 6.19769 12.3433 6.19769 12.2028C6.19769 11.7812 6.40849 11.2893 6.90037 10.7974C7.39224 10.3056 7.81385 10.0948 8.23546 10.0948C8.44626 10.0948 8.58679 10.0948 8.7976 10.165C9.0084 10.2353 9.2192 10.3056 9.50027 10.5164C8.86786 8.40834 8.23546 6.65165 7.88412 5.4571C7.53278 4.26255 7.39224 3.4896 7.39224 2.99773C7.39224 2.36532 7.53278 1.87344 7.88412 1.5221C8.16519 1.17076 8.65706 0.959961 9.2192 0.959961C10.1327 0.959961 11.3272 3.06799 12.8029 7.35433C13.0839 8.05701 13.2245 8.61915 13.365 9.04075C13.5055 8.75968 13.6461 8.26781 13.8569 7.70567C15.3325 3.4896 16.5973 1.38157 17.5811 1.38157C18.0729 1.38157 18.4946 1.5221 18.8459 1.87344C19.127 2.22478 19.3378 2.71666 19.3378 3.2788C19.3378 3.7004 19.1972 4.54362 18.8459 5.73817C18.4243 6.93272 17.9324 8.47861 17.2297 10.3758ZM6.40849 16.5594C6.54903 16.6999 6.75983 16.981 6.97064 17.3324C7.60305 18.2458 8.23546 18.7377 8.7976 18.7377C9.0084 18.7377 9.14894 18.6674 9.28947 18.5269C9.43001 18.3864 9.50027 18.2458 9.50027 18.1756C9.50027 18.035 9.43001 17.754 9.2192 17.4026C9.0084 17.0513 8.72733 16.6297 8.37599 16.2081C7.95438 15.7162 7.60305 15.2946 7.39224 15.0838C7.11117 14.873 6.90037 14.7324 6.75983 14.7324C6.40849 14.7324 6.05715 14.9432 5.77608 15.2946C5.49501 15.6459 5.35448 16.1378 5.35448 16.6297C5.35448 17.0513 5.42474 17.4729 5.63555 18.035C5.84635 18.5269 6.12742 19.089 6.54903 19.5809C7.18144 20.2836 7.88412 20.916 8.7976 21.3376C9.71108 21.7592 10.6246 21.97 11.7488 21.97C13.7163 21.97 15.3325 21.2673 16.6676 19.7917C18.0027 18.3161 18.6351 16.4891 18.6351 14.2406C18.6351 13.5379 18.5648 13.046 18.4946 12.6244C18.4243 12.2028 18.2135 11.9217 18.0027 11.7812C17.5811 11.4299 16.8081 11.1488 15.6136 10.8677C14.419 10.5866 13.1542 10.4461 11.8894 10.4461C11.538 10.4461 11.257 10.5164 11.1164 10.6569C10.9759 10.7974 10.9056 11.0083 10.9056 11.2893C10.9056 11.992 11.257 12.4839 12.0299 12.7649C12.8029 13.046 14.0677 13.2568 15.7541 13.2568H16.3865C16.5271 13.2568 16.6676 13.3271 16.7379 13.3974C16.8081 13.5379 16.8784 13.6784 16.8784 13.8892C16.7379 14.0298 16.3865 14.2406 15.8244 14.4514C15.2622 14.6622 14.9109 14.873 14.6298 15.0838C13.9974 15.5054 13.5055 16.0675 13.1542 16.6999C12.8029 17.3324 12.5921 17.8945 12.5921 18.4566C12.5921 18.808 12.6623 19.1593 12.8029 19.6512C12.9434 20.1431 13.0137 20.4241 13.0137 20.4944V20.6349V20.7755C12.5921 20.7755 12.2407 20.4944 11.9596 20.0025C11.6786 19.5107 11.6083 18.8782 11.6083 18.035V17.8945C11.538 17.9648 11.4678 18.035 11.3975 18.035C11.3272 18.035 11.257 18.1053 11.1164 18.1053H10.8354C10.7651 18.1053 10.6948 18.035 10.5543 18.035C10.5543 18.1756 10.6246 18.2458 10.6246 18.3864V18.6674C10.6246 19.0188 10.484 19.3701 10.203 19.6512C9.92188 19.9323 9.57054 20.0728 9.14894 20.0728C8.51653 20.0728 7.88412 19.7917 7.18144 19.1593C6.54903 18.5269 6.19769 17.9648 6.19769 17.3324C6.19769 17.1918 6.19769 17.1215 6.26796 17.0513C6.26796 16.6999 6.33823 16.6297 6.40849 16.5594ZM10.9759 16.9107C11.1164 16.9107 11.3272 16.8405 11.4678 16.6999C11.6083 16.5594 11.6786 16.3486 11.6786 16.2081C11.6786 15.9973 11.538 15.5757 11.257 14.873C10.9759 14.1703 10.6246 13.4676 10.203 12.8352C9.92188 12.3433 9.57054 11.9217 9.28947 11.7109C9.0084 11.4299 8.72733 11.3596 8.44626 11.3596C8.23546 11.3596 8.02465 11.5001 7.74358 11.7812C7.46251 12.0623 7.39224 12.2731 7.39224 12.5541C7.39224 12.7649 7.53278 13.1866 7.74358 13.6784C8.02465 14.1703 8.30572 14.6622 8.72733 15.2243C9.14894 15.7865 9.57054 16.2783 9.99215 16.6297C10.4138 16.7702 10.6948 16.9107 10.9759 16.9107ZM12.4515 9.6029L10.7651 4.89496C10.3435 3.7004 10.0624 2.85719 9.78135 2.50585C9.57054 2.15451 9.35974 1.94371 9.07867 1.94371C8.86787 1.94371 8.72733 2.01398 8.58679 2.15451C8.37599 2.36532 8.30572 2.57612 8.30572 2.85719C8.30572 3.34907 8.51653 4.12201 8.86786 5.24629C9.2192 6.37058 9.78135 7.91647 10.484 9.74343C10.5543 9.6029 10.6246 9.53263 10.7651 9.53263C10.9056 9.46236 11.0462 9.46236 11.1867 9.46236H11.538C11.7488 9.53263 12.0299 9.53263 12.4515 9.6029ZM14.1379 14.1703C13.7163 14.1703 13.2947 14.1 12.8731 14.0298C12.4515 13.9595 12.1002 13.8892 11.7488 13.7487C11.8894 14.1 12.0299 14.3811 12.1705 14.7324C12.311 15.0838 12.3813 15.3649 12.4515 15.7162C12.6623 15.4351 12.9434 15.1541 13.2245 14.873C13.5758 14.5919 13.8569 14.3811 14.1379 14.1703ZM16.1757 10.0948C16.8784 8.26781 17.3703 6.72192 17.7919 5.52737C18.1432 4.33281 18.354 3.63014 18.354 3.34907C18.354 3.06799 18.2837 2.85719 18.1432 2.64639C18.0027 2.50585 17.8621 2.43558 17.6513 2.43558C17.3703 2.43558 17.0892 2.64639 16.8081 3.13826C16.5271 3.63014 16.1757 4.33281 15.8244 5.38683L14.2785 9.74343L16.1757 10.0948Z"
              fill="white" />
          </svg>