<svg width="24" height="24" viewBox="0 0 24 24" fill="none" xmlns="http://www.w3.org/2000/svg">
  <g clip-path="url(#clip0_1_163)">
    <path d="M12 0.5C5.36999 0.5 -7.62939e-06 5.78 -7.62939e-06 12.292C-7.62939e-06 17.503 3.43799 21.922 8.20499 23.48C8.80499 23.591 9.02499 23.226 9.02499 22.913C9.02499 22.633 9.01499 21.891 9.00999 20.908C5.67199 21.619 4.96799 19.326 4.96799 19.326C4.42199 17.965 3.63299 17.601 3.63299 17.601C2.54599 16.87 3.71699 16.885 3.71699 16.885C4.92199 16.967 5.55499 18.1 5.55499 18.1C6.62499 19.903 8.36399 19.382 9.04999 19.081C9.15799 18.318 9.46699 17.799 9.80999 17.504C7.14499 17.209 4.34399 16.195 4.34399 11.677C4.34399 10.39 4.80899 9.338 5.57899 8.513C5.44399 8.215 5.03899 7.016 5.68399 5.392C5.68399 5.392 6.68899 5.076 8.98399 6.601C9.94399 6.339 10.964 6.209 11.984 6.203C13.004 6.209 14.024 6.339 14.984 6.601C17.264 5.076 18.269 5.392 18.269 5.392C18.914 7.016 18.509 8.215 18.389 8.513C19.154 9.338 19.619 10.39 19.619 11.677C19.619 16.207 16.814 17.204 14.144 17.494C14.564 17.848 14.954 18.571 14.954 19.676C14.954 21.254 14.939 22.522 14.939 22.905C14.939 23.214 15.149 23.583 15.764 23.465C20.565 21.917 24 17.495 24 12.292C24 5.78 18.627 0.5 12 0.5V0.5Z" fill="white" />
  </g> <defs>
              <clipPath id="clip0_1_163">
                <rect width="24" height="24" fill="white" />
              </clipPath>
            </defs>
</svg>