<svg width="24" height="24" viewBox="0 0 24 24" fill="none" xmlns="http://www.w3.org/2000/svg">
            <path
              d="M17.2492 15C16.8352 15 16.4992 15.336 16.4992 15.75V22.5H4.49922V15.75C4.49922 15.336 4.16322 15 3.74922 15C3.33522 15 2.99922 15.336 2.99922 15.75V23.25C2.99922 23.664 3.33522 24 3.74922 24H17.2492C17.6632 24 17.9992 23.664 17.9992 23.25V15.75C17.9992 15.336 17.6632 15 17.2492 15Z"
              fill="white" />
            <path
              d="M14.2492 19.5H6.74922C6.33522 19.5 5.99922 19.836 5.99922 20.25C5.99922 20.664 6.33522 21 6.74922 21H14.2492C14.6632 21 14.9992 20.664 14.9992 20.25C14.9992 19.836 14.6632 19.5 14.2492 19.5Z"
              fill="white" />
            <path
              d="M14.3227 16.5046L6.82274 15.7546C6.40424 15.7141 6.04424 16.0141 6.00224 16.4251C5.96174 16.8376 6.26174 17.2051 6.67424 17.2456L14.1742 17.9956C14.1997 17.9986 14.2252 18.0001 14.2507 18.0001C14.6302 18.0001 14.9572 17.7121 14.9932 17.3251C15.0367 16.9126 14.7337 16.5451 14.3227 16.5046Z"
              fill="white" />
            <path
              d="M15.2152 13.5317L7.71523 11.2817C7.31474 11.1617 6.89924 11.3882 6.78074 11.7842C6.66224 12.1817 6.88724 12.5987 7.28324 12.7187L14.7832 14.9687C14.8552 14.9897 14.9272 15.0002 14.9992 15.0002C15.3217 15.0002 15.6202 14.7902 15.7177 14.4647C15.8377 14.0672 15.6127 13.6502 15.2152 13.5317Z"
              fill="white" />
            <path
              d="M16.1137 10.5945L9.36374 6.84453C9.00224 6.64053 8.54475 6.77403 8.34375 7.13553C8.14125 7.49853 8.27175 7.95452 8.63475 8.15552L15.3847 11.9055C15.5002 11.97 15.6247 12 15.7492 12C16.0117 12 16.2682 11.8605 16.4047 11.6145C16.6057 11.2515 16.4752 10.7955 16.1137 10.5945Z"
              fill="white" />
            <path
              d="M17.8852 9.35246L14.1352 3.35249C13.9162 2.99999 13.4527 2.89649 13.1017 3.11399C12.7507 3.33299 12.6442 3.79649 12.8632 4.14748L16.6132 10.1475C16.7557 10.3755 17.0002 10.5 17.2492 10.5C17.3857 10.5 17.5237 10.464 17.6467 10.386C17.9977 10.167 18.1042 9.70346 17.8852 9.35246Z"
              fill="white" />
            <path
              d="M20.9857 8.10306L19.4857 0.603093C19.4032 0.196595 18.9922 -0.0674039 18.6037 0.0150957C18.1957 0.0960954 17.9317 0.490594 18.0142 0.897092L19.5142 8.39706C19.5862 8.75406 19.8982 9.00006 20.2477 9.00006C20.2972 9.00006 20.3467 8.99556 20.3962 8.98506C20.8042 8.90406 21.0682 8.50956 20.9857 8.10306Z"
              fill="white" />
          </svg>